<?xml version="1.0" encoding="UTF-8" standalone="no"?>
<!-- Created with Inkscape (http://www.inkscape.org/) -->

<svg
   width="121.90833mm"
   height="114.7423mm"
   viewBox="0 0 121.90833 114.7423"
   version="1.1"
   id="svg1"
   xml:space="preserve"
   inkscape:version="1.3 (0e150ed, 2023-07-21)"
   sodipodi:docname="MolaraLogo.svg"
   xmlns:inkscape="http://www.inkscape.org/namespaces/inkscape"
   xmlns:sodipodi="http://sodipodi.sourceforge.net/DTD/sodipodi-0.dtd"
   xmlns="http://www.w3.org/2000/svg"
   xmlns:svg="http://www.w3.org/2000/svg"><sodipodi:namedview
     id="namedview1"
     pagecolor="#ffffff"
     bordercolor="#000000"
     borderopacity="0.25"
     inkscape:showpageshadow="2"
     inkscape:pageopacity="0.0"
     inkscape:pagecheckerboard="0"
     inkscape:deskcolor="#d1d1d1"
     inkscape:document-units="mm"
     inkscape:zoom="1.4142136"
     inkscape:cx="243.24473"
     inkscape:cy="173.59471"
     inkscape:window-width="1920"
     inkscape:window-height="1080"
     inkscape:window-x="0"
     inkscape:window-y="0"
     inkscape:window-maximized="0"
     inkscape:current-layer="layer1" /><defs
     id="defs1" /><g
     inkscape:label="Layer 1"
     inkscape:groupmode="layer"
     id="layer1"
     transform="translate(-62.549224,-81.768368)"><g
       id="g1"
       style="clip-rule:evenodd;fill-rule:evenodd;stroke:#000000;stroke-width:0.755906;stroke-dasharray:none;stroke-opacity:1;image-rendering:optimizeQuality;shape-rendering:geometricPrecision;text-rendering:geometricPrecision"
       transform="matrix(0.26458333,0,0,0.26458333,62.781516,74.834628)"><path
         style="opacity:0.997;stroke:#000000;stroke-width:0.755906;stroke-dasharray:none;stroke-opacity:1"
         fill="#fa8101"
         d="m 123.5,27.5 c 23.074,12.6387 32.074,32.6387 27,60 -1.648,1.9559 -2.315,4.2892 -2,7 -1.699,-0.1602 -3.366,0.0065 -5,0.5 -4.827,3.332 -9.493,6.832 -14,10.5 -1.667,0 -3.333,0 -5,0 -1.667,-2 -3.333,-4 -5,-6 2.855,-2.201 4.189,-5.201 4,-9 -1.849,-10.0324 -6.849,-18.1991 -15,-24.5 -2.31,-0.4966 -4.643,-0.6633 -7,-0.5 -0.157,-1.3734 0.01,-2.7068 0.5,-4 3.418,-1.4077 5.251,-3.9077 5.5,-7.5 -1.465,-9.4738 -6.465,-16.4738 -15,-21 -5.4069,-1.3923 -10.0735,-0.2256 -14,3.5 1.3743,-4.8899 4.7076,-7.7233 10,-8.5 11.797,-1.703 23.463,-1.8697 35,-0.5 z"
         id="path1" /></g><g
       id="g2"
       style="clip-rule:evenodd;fill-rule:evenodd;stroke:#000000;stroke-width:0.755906;stroke-dasharray:none;stroke-opacity:1;image-rendering:optimizeQuality;shape-rendering:geometricPrecision;text-rendering:geometricPrecision"
       transform="matrix(0.26458333,0,0,0.26458333,62.781516,74.834628)"><path
         style="opacity:0.994;stroke:#000000;stroke-width:0.755906;stroke-dasharray:none;stroke-opacity:1"
         fill="#f60701"
         d="m 123.5,27.5 c 12.98,0.5802 24.48,4.9136 34.5,13 6.255,11.5101 12.255,23.1767 18,35 4.09,4.9275 7.59,10.2609 10.5,16 -1.252,2.2354 -1.752,4.5687 -1.5,7 6.54,8.34 14.707,14.34 24.5,18 -8.824,0.83 -17.824,1.33 -27,1.5 -2.547,2.054 -5.214,3.887 -8,5.5 0,-1.333 0,-2.667 0,-4 -2.921,-5.588 -6.254,-10.921 -10,-16 1.697,-3.227 4.03,-6.0601 7,-8.5 -2.333,-3.6667 -5.333,-6.6667 -9,-9 -4.302,-1.006 -8.302,-0.506 -12,1.5 5.074,-27.3613 -3.926,-47.3613 -27,-60 z"
         id="path2" /></g><g
       id="g3"
       style="clip-rule:evenodd;fill-rule:evenodd;stroke:#000000;stroke-width:0.755906;stroke-dasharray:none;stroke-opacity:1;image-rendering:optimizeQuality;shape-rendering:geometricPrecision;text-rendering:geometricPrecision"
       transform="matrix(0.26458333,0,0,0.26458333,62.781516,74.834628)"><path
         style="opacity:0.997;stroke:#000000;stroke-width:0.755906;stroke-dasharray:none;stroke-opacity:1"
         fill="#221732"
         d="m 119.5,99.5 c -5.986,2.663 -11.986,2.663 -18,0 -0.798,0.4569 -1.131,1.124 -1,2 -1.4669,-3.3968 -3.4669,-3.7301 -6,-1 -1.3333,-0.6667 -2.6667,-1.3333 -4,-2 -2.5876,-4.1756 -5.4209,-8.1756 -8.5,-12 -3.4567,5.768 -4.29,11.9347 -2.5,18.5 -0.1251,1.627 -0.6251,3.127 -1.5,4.5 -6.3207,-5.638 -10.3207,-12.6376 -12,-21 -3.6085,-19.4419 0.5582,-36.7752 12.5,-52 3.9265,-3.7256 8.5931,-4.8923 14,-3.5 8.535,4.5262 13.535,11.5262 15,21 -0.249,3.5923 -2.082,6.0923 -5.5,7.5 -0.49,1.2932 -0.657,2.6266 -0.5,4 2.357,-0.1633 4.69,0.0034 7,0.5 8.151,6.3009 13.151,14.4676 15,24.5 0.189,3.799 -1.145,6.799 -4,9 z"
         id="path3" /></g><g
       id="g4"
       style="clip-rule:evenodd;fill-rule:evenodd;stroke:#000000;stroke-width:0.755906;stroke-dasharray:none;stroke-opacity:1;image-rendering:optimizeQuality;shape-rendering:geometricPrecision;text-rendering:geometricPrecision"
       transform="matrix(0.26458333,0,0,0.26458333,62.781516,74.834628)"><path
         style="opacity:0.999;stroke:#000000;stroke-width:0.755906;stroke-dasharray:none;stroke-opacity:1"
         fill="#321d30"
         d="m 126.5,37.5 c 6.477,-1.1892 10.143,1.4775 11,8 -1.356,4.5718 -4.189,6.2385 -8.5,5 -1.9,-4.1322 -2.733,-8.4655 -2.5,-13 z"
         id="path4" /></g><g
       id="g5"
       style="clip-rule:evenodd;fill-rule:evenodd;stroke:#000000;stroke-width:0.755906;stroke-dasharray:none;stroke-opacity:1;image-rendering:optimizeQuality;shape-rendering:geometricPrecision;text-rendering:geometricPrecision"
       transform="matrix(0.26458333,0,0,0.26458333,62.781516,74.834628)"><path
         style="opacity:0.999;stroke:#000000;stroke-width:0.755906;stroke-dasharray:none;stroke-opacity:1"
         fill="#241733"
         d="m 174.5,119.5 c -7.394,-2.53 -15.061,-3.697 -23,-3.5 -4.435,-2.634 -8.935,-5.134 -13.5,-7.5 -4.173,3.108 -7.006,2.108 -8.5,-3 4.507,-3.668 9.173,-7.168 14,-10.5 1.634,-0.4935 3.301,-0.6602 5,-0.5 -0.315,-2.7108 0.352,-5.0441 2,-7 3.698,-2.006 7.698,-2.506 12,-1.5 3.667,2.3333 6.667,5.3333 9,9 -2.97,2.4399 -5.303,5.273 -7,8.5 3.746,5.079 7.079,10.412 10,16 z"
         id="path5" /></g><g
       id="g6"
       style="clip-rule:evenodd;fill-rule:evenodd;stroke:#000000;stroke-width:0.755906;stroke-dasharray:none;stroke-opacity:1;image-rendering:optimizeQuality;shape-rendering:geometricPrecision;text-rendering:geometricPrecision"
       transform="matrix(0.26458333,0,0,0.26458333,62.781516,74.834628)"><path
         style="opacity:0.997;stroke:#000000;stroke-width:0.755906;stroke-dasharray:none;stroke-opacity:1"
         fill="#05a506"
         d="m 459.5,208.5 c 0,11 0,22 0,33 -3.655,3.66 -7.989,5.993 -13,7 0.546,12.34 1.213,24.674 2,37 3.809,0.535 7.476,1.535 11,3 0,15.333 0,30.667 0,46 -14.841,5.892 -26.674,2.225 -35.5,-11 -2.122,-4.376 -3.289,-9.043 -3.5,-14 -25.315,-4.33 -50.648,-8.664 -76,-13 -2.74,3.771 -5.74,7.438 -9,11 -2.699,2.348 -5.699,4.182 -9,5.5 -6,0.667 -12,0.667 -18,0 -3.364,-1.099 -6.53,-2.599 -9.5,-4.5 7.757,23.924 11.09,48.591 10,74 -0.278,0.916 -0.778,1.582 -1.5,2 -4.918,-6.044 -8.918,-12.711 -12,-20 -1.593,-2.856 -2.927,-5.856 -4,-9 0.172,-0.992 -0.162,-1.658 -1,-2 0,-0.333 0,-0.667 0,-1 0,-0.667 0,-1.333 0,-2 0.172,-0.992 -0.162,-1.658 -1,-2 -0.674,-3.026 -1.507,-6.026 -2.5,-9 -0.708,-0.881 -1.542,-1.547 -2.5,-2 -2.612,-0.777 -4.445,-2.444 -5.5,-5 -5.391,-9.22 -10.557,-18.554 -15.5,-28 9.677,-1.668 19.344,-3.501 29,-5.5 0.776,-1.77 0.61,-3.603 -0.5,-5.5 -0.893,-0.581 -1.893,-0.915 -3,-1 -11.403,2.28 -22.903,3.447 -34.5,3.5 -0.556,-0.383 -0.889,-0.883 -1,-1.5 -0.341,-3.016 -1.507,-5.682 -3.5,-8 -15.959,-11.964 -28.292,-26.964 -37,-45 -3.547,-3.13 -7.714,-4.963 -12.5,-5.5 -12.65,-17.117 -19.65,-36.284 -21,-57.5 2.815,-0.824 4.982,-2.491 6.5,-5 0.248,-5.063 0.915,-10.063 2,-15 2.559,-2.849 5.726,-3.683 9.5,-2.5 4.394,4.574 9.727,7.074 16,7.5 2.75,5.231 7.083,7.398 13,6.5 5.106,6.109 10.606,11.942 16.5,17.5 2.074,4.975 5.241,9.142 9.5,12.5 2.195,1.373 4.529,1.706 7,1 0.837,-1.011 1.17,-2.178 1,-3.5 10.667,26.692 20.833,53.692 30.5,81 4.837,-10.826 13.17,-17.159 25,-19 1.979,-18.952 3.145,-37.952 3.5,-57 -8.486,-2.315 -14.32,-7.649 -17.5,-16 -3.513,-16.143 2.32,-27.309 17.5,-33.5 8.959,-1.967 16.959,-0.134 24,5.5 8.591,-6.546 17.091,-13.213 25.5,-20 0.667,-1 0.667,-2 0,-3 -7.469,-13.272 -5.635,-25.105 5.5,-35.5 13.962,-7.5531 26.129,-5.3864 36.5,6.5 7.059,12.929 5.225,24.429 -5.5,34.5 -9.718,6.539 -19.718,7.039 -30,1.5 -9.438,6.935 -18.438,14.435 -27,22.5 3.078,6.418 3.744,13.084 2,20 22.273,9.651 44.607,19.151 67,28.5 9.799,-14.891 22.466,-17.891 38,-9 1.021,1.688 2.355,3.021 4,4 z m -112,-16 c 22.554,8.408 44.887,17.408 67,27 -0.317,13.218 5.35,22.718 17,28.5 2.563,1.079 5.229,1.579 8,1.5 0.611,12.337 1.278,24.67 2,37 -9.646,2.136 -16.479,7.802 -20.5,17 -25.676,-5.357 -51.51,-10.024 -77.5,-14 0.988,-8.873 -1.679,-16.373 -8,-22.5 -3.752,-2.293 -7.586,-4.46 -11.5,-6.5 0.101,-18.752 1.435,-37.419 4,-56 8.045,-1.601 14.545,-5.601 19.5,-12 z"
         id="path6" /></g><g
       id="g7"
       style="clip-rule:evenodd;fill-rule:evenodd;stroke:#000000;stroke-width:0.755906;stroke-dasharray:none;stroke-opacity:1;image-rendering:optimizeQuality;shape-rendering:geometricPrecision;text-rendering:geometricPrecision"
       transform="matrix(0.26458333,0,0,0.26458333,62.781516,74.834628)"><path
         style="opacity:0.987;stroke:#000000;stroke-width:0.755906;stroke-dasharray:none;stroke-opacity:1"
         fill="#f11403"
         d="m 119.5,99.5 c 1.667,2 3.333,4 5,6 -5.622,0.191 -10.956,1.524 -16,4 -0.682,-0.743 -1.349,-1.409 -2,-2 -2.333,-1.667 -4.333,-3.667 -6,-6 -0.131,-0.876 0.202,-1.5431 1,-2 6.014,2.663 12.014,2.663 18,0 z"
         id="path7" /></g><g
       id="g8"
       style="clip-rule:evenodd;fill-rule:evenodd;stroke:#000000;stroke-width:0.755906;stroke-dasharray:none;stroke-opacity:1;image-rendering:optimizeQuality;shape-rendering:geometricPrecision;text-rendering:geometricPrecision"
       transform="matrix(0.26458333,0,0,0.26458333,62.781516,74.834628)"><path
         style="opacity:0.999;stroke:#000000;stroke-width:0.755906;stroke-dasharray:none;stroke-opacity:1"
         fill="#0642ba"
         d="m 124.5,105.5 c 1.667,0 3.333,0 5,0 1.494,5.108 4.327,6.108 8.5,3 4.565,2.366 9.065,4.866 13.5,7.5 7.939,-0.197 15.606,0.97 23,3.5 0,1.333 0,2.667 0,4 0.023,17.021 -0.144,34.021 -0.5,51 1.774,1.465 3.608,2.798 5.5,4 1.35,21.216 8.35,40.383 21,57.5 4.786,0.537 8.953,2.37 12.5,5.5 8.708,18.036 21.041,33.036 37,45 1.993,2.318 3.159,4.984 3.5,8 -8.275,-13.71 -20.275,-18.543 -36,-14.5 -6.918,3.355 -11.918,8.522 -15,15.5 -1.624,-0.14 -2.79,0.527 -3.5,2 -0.147,3.071 -0.98,5.904 -2.5,8.5 0.752,0.671 1.086,1.504 1,2.5 -21.978,4.16 -43.978,8.326 -66,12.5 -1.746,0.471 -3.413,1.138 -5,2 -1.017,1.049 -1.184,2.216 -0.5,3.5 2.904,1.727 6.07,2.393 9.5,2 -1.213,2.725 -3.046,5.059 -5.5,7 -0.273,1.601 -0.773,3.101 -1.5,4.5 0.204,4.725 0.871,9.558 2,14.5 -2.064,-0.187 -4.064,-0.687 -6,-1.5 -5.854,-4.364 -11.521,-8.864 -17,-13.5 -1.891,-3.114 -3.224,-6.448 -4,-10 -0.132,-3.07 0.201,-6.07 1,-9 1.595,-2.785 2.595,-5.785 3,-9 1.618,-2.285 3.618,-4.285 6,-6 1.632,0.797 3.132,1.797 4.5,3 7.68,-6.244 16.18,-7.578 25.5,-4 3.19,-2.523 4.523,-1.523 4,3 1.553,2.754 3.886,3.587 7,2.5 6.833,-3.5 13.667,-7 20.5,-10.5 0.598,-3.557 1.431,-7.057 2.5,-10.5 -0.259,-1.261 -0.926,-2.261 -2,-3 -3.965,-1.993 -7.965,-3.993 -12,-6 -1.241,-2.563 -2.574,-5.063 -4,-7.5 -0.586,0.209 -1.086,0.543 -1.5,1 -0.181,3.195 -0.681,6.195 -1.5,9 -10.882,-9.042 -19.716,-19.709 -26.5,-32 -2.646,-7.123 -5.146,-14.29 -7.5,-21.5 -1.197,-1.52 -2.697,-2.687 -4.5,-3.5 -0.15,-6.758 -1.817,-13.091 -5,-19 -1.264,-2.107 -3.097,-3.107 -5.5,-3 -0.298,-2.765 -1.298,-5.265 -3,-7.5 1.132,-4.413 1.299,-8.913 0.5,-13.5 -3.104,-1.964 -6.2711,-3.63 -9.5,-5 2.2853,-5.904 5.119,-11.571 8.5,-17 2.593,-5.272 1.927,-9.939 -2,-14 -2.6683,-5.319 -1.335,-9.319 4,-12 0.878,-4.807 -1.122,-7.807 -6,-9 -0.4828,-0.948 -0.6495,-1.948 -0.5,-3 1.846,0.278 3.18,-0.389 4,-2 -1.798,-2.789 -2.298,-5.789 -1.5,-9 2.118,-0.783 3.618,-2.116 4.5,-4 0.651,0.591 1.318,1.257 2,2 5.044,-2.476 10.378,-3.809 16,-4 z"
         id="path8" /></g><g
       id="g9"
       style="clip-rule:evenodd;fill-rule:evenodd;stroke:#000000;stroke-width:0.755906;stroke-dasharray:none;stroke-opacity:1;image-rendering:optimizeQuality;shape-rendering:geometricPrecision;text-rendering:geometricPrecision"
       transform="matrix(0.26458333,0,0,0.26458333,62.781516,74.834628)"><path
         style="opacity:0.998;stroke:#000000;stroke-width:0.755906;stroke-dasharray:none;stroke-opacity:1"
         fill="#f98102"
         d="m 209.5,116.5 c 3.018,-0.165 6.018,0.002 9,0.5 5.566,5.569 10.399,11.735 14.5,18.5 11.033,19.742 20.2,40.408 27.5,62 0.17,1.322 -0.163,2.489 -1,3.5 -2.471,0.706 -4.805,0.373 -7,-1 -4.259,-3.358 -7.426,-7.525 -9.5,-12.5 -5.894,-5.558 -11.394,-11.391 -16.5,-17.5 -5.917,0.898 -10.25,-1.269 -13,-6.5 -6.273,-0.426 -11.606,-2.926 -16,-7.5 -3.774,-1.183 -6.941,-0.349 -9.5,2.5 -1.085,4.937 -1.752,9.937 -2,15 -1.518,2.509 -3.685,4.176 -6.5,5 -1.892,-1.202 -3.726,-2.535 -5.5,-4 0.356,-16.979 0.523,-33.979 0.5,-51 2.786,-1.613 5.453,-3.446 8,-5.5 9.176,-0.17 18.176,-0.67 27,-1.5 z"
         id="path9" /></g><g
       id="g10"
       style="clip-rule:evenodd;fill-rule:evenodd;stroke:#000000;stroke-width:0.755906;stroke-dasharray:none;stroke-opacity:1;image-rendering:optimizeQuality;shape-rendering:geometricPrecision;text-rendering:geometricPrecision"
       transform="matrix(0.26458333,0,0,0.26458333,62.781516,74.834628)"><path
         style="opacity:0.998;stroke:#000000;stroke-width:0.755906;stroke-dasharray:none;stroke-opacity:1"
         fill="#02a406"
         d="m 84.5,272.5 c -1.0612,-3.122 -2.3946,-6.122 -4,-9 -2.1653,-19.336 6.5013,-28.503 26,-27.5 14.445,4.571 19.945,14.405 16.5,29.5 -5.78,11.306 -14.947,15.806 -27.5,13.5 -4.0548,-1.564 -7.7214,-3.731 -11,-6.5 z"
         id="path10" /></g><g
       id="g11"
       style="clip-rule:evenodd;fill-rule:evenodd;stroke:#000000;stroke-width:0.755906;stroke-dasharray:none;stroke-opacity:1;image-rendering:optimizeQuality;shape-rendering:geometricPrecision;text-rendering:geometricPrecision"
       transform="matrix(0.26458333,0,0,0.26458333,62.781516,74.834628)"><path
         style="opacity:0.997;stroke:#000000;stroke-width:0.755906;stroke-dasharray:none;stroke-opacity:1"
         fill="#0199d8"
         d="m 80.5,263.5 c 1.6054,2.878 2.9388,5.878 4,9 -5.7137,1.46 -11.3803,3.126 -17,5 -0.7937,5.153 -1.4604,10.32 -2,15.5 0.3333,0.833 0.6667,1.667 1,2.5 13.6273,5.758 27.294,11.092 41,16 -0.405,3.215 -1.405,6.215 -3,9 -4.8102,-0.536 -9.4769,-1.703 -14,-3.5 -9.4289,-4.312 -19.0955,-8.146 -29,-11.5 -4.3749,1.87 -8.3749,4.37 -12,7.5 -3.3758,1.899 -7.0425,2.732 -11,2.5 -0.1661,5.676 6e-4,11.343 0.5,17 6.2959,4.224 11.9626,9.224 17,15 15.5747,-6.691 31.4081,-12.691 47.5,-18 0.776,3.552 2.109,6.886 4,10 -15.8835,5.276 -31.5501,11.109 -47,17.5 2.8269,27.67 -9.5064,43.504 -37,47.5 -8.6949,-1.356 -16.69493,-4.356 -24,-9 0,-19 0,-38 0,-57 8.67001,-6 18.3367,-9 29,-9 0,-4.667 0,-9.333 0,-14 -14.7726,-2.942 -23.27257,-11.942 -25.5,-27 -1.01127,-0.837 -2.177934,-1.17 -3.5,-1 0,-3.667 0,-7.333 0,-11 1.373441,0.157 2.70677,-0.01 4,-0.5 11.3586,-22.714 28.3586,-28.048 51,-16 2.872,2.537 5.372,5.37 7.5,8.5 6.1096,-1.902 12.2763,-3.569 18.5,-5 z"
         id="path11" /></g><g
       id="g12"
       style="clip-rule:evenodd;fill-rule:evenodd;stroke:#000000;stroke-width:0.755906;stroke-dasharray:none;stroke-opacity:1;image-rendering:optimizeQuality;shape-rendering:geometricPrecision;text-rendering:geometricPrecision"
       transform="matrix(0.26458333,0,0,0.26458333,62.781516,74.834628)"><path
         style="opacity:0.992;stroke:#000000;stroke-width:0.755906;stroke-dasharray:none;stroke-opacity:1"
         fill="#7480cc"
         d="m 147.5,307.5 c 0.65,-0.304 1.317,-0.637 2,-1 1.911,-4.826 4.577,-9.159 8,-13 1.366,-3.832 1.032,-7.499 -1,-11 0.819,-2.805 1.319,-5.805 1.5,-9 0.414,-0.457 0.914,-0.791 1.5,-1 1.426,2.437 2.759,4.937 4,7.5 4.035,2.007 8.035,4.007 12,6 1.074,0.739 1.741,1.739 2,3 -1.069,3.443 -1.902,6.943 -2.5,10.5 -6.833,3.5 -13.667,7 -20.5,10.5 -3.114,1.087 -5.447,0.254 -7,-2.5 z"
         id="path12" /></g><g
       id="g13"
       style="clip-rule:evenodd;fill-rule:evenodd;stroke:#000000;stroke-width:0.755906;stroke-dasharray:none;stroke-opacity:1;image-rendering:optimizeQuality;shape-rendering:geometricPrecision;text-rendering:geometricPrecision"
       transform="matrix(0.26458333,0,0,0.26458333,62.781516,74.834628)"><path
         style="opacity:0.995;stroke:#000000;stroke-width:0.755906;stroke-dasharray:none;stroke-opacity:1"
         fill="#f90701"
         d="m 253.5,294.5 c 0.111,0.617 0.444,1.117 1,1.5 11.597,-0.053 23.097,-1.22 34.5,-3.5 1.107,0.085 2.107,0.419 3,1 1.11,1.897 1.276,3.73 0.5,5.5 -9.656,1.999 -19.323,3.832 -29,5.5 -3.125,0.318 -5.958,1.318 -8.5,3 -1.863,10.547 -7.697,18.047 -17.5,22.5 -5.323,0.499 -10.656,0.666 -16,0.5 -7.601,-1.476 -13.601,-5.476 -18,-12 -1.167,-0.333 -2.333,-0.667 -3.5,-1 -6.819,1.165 -13.653,2.165 -20.5,3 -11.027,2.003 -22.027,4.003 -33,6 -3.571,1.142 -7.238,1.809 -11,2 -3.43,0.393 -6.596,-0.273 -9.5,-2 -0.684,-1.284 -0.517,-2.451 0.5,-3.5 1.587,-0.862 3.254,-1.529 5,-2 22.022,-4.174 44.022,-8.34 66,-12.5 0.667,0 1.333,0 2,0 1.844,-1.779 2.51,-4.112 2,-7 -0.175,-2.121 0.159,-4.121 1,-6 3.082,-6.978 8.082,-12.145 15,-15.5 15.725,-4.043 27.725,0.79 36,14.5 z"
         id="path13" /></g><g
       id="g14"
       style="clip-rule:evenodd;fill-rule:evenodd;stroke:#000000;stroke-width:0.755906;stroke-dasharray:none;stroke-opacity:1;image-rendering:optimizeQuality;shape-rendering:geometricPrecision;text-rendering:geometricPrecision"
       transform="matrix(0.26458333,0,0,0.26458333,62.781516,74.834628)" /><g
       id="g15"
       style="clip-rule:evenodd;fill-rule:evenodd;stroke:#000000;stroke-width:0.755906;stroke-dasharray:none;stroke-opacity:1;image-rendering:optimizeQuality;shape-rendering:geometricPrecision;text-rendering:geometricPrecision"
       transform="matrix(0.26458333,0,0,0.26458333,62.781516,74.834628)"><path
         style="opacity:0.998;stroke:#000000;stroke-width:0.755906;stroke-dasharray:none;stroke-opacity:1"
         fill="#fa8101"
         d="m 263.5,304.5 c 4.943,9.446 10.109,18.78 15.5,28 1.055,2.556 2.888,4.223 5.5,5 -0.157,1.373 0.01,2.707 0.5,4 1.206,3.237 2.706,5.57 4.5,7 0.838,0.342 1.172,1.008 1,2 -1.333,0.667 -1.333,1.333 0,2 0,0.333 0,0.667 0,1 -0.172,0.992 0.162,1.658 1,2 1.073,3.144 2.407,6.144 4,9 -8.118,1.247 -15.451,-0.42 -22,-5 -0.908,1.29 -0.741,2.623 0.5,4 4.576,5.487 8.909,11.153 13,17 0.325,2.053 -0.009,4.053 -1,6 -8.531,13.135 -20.698,19.801 -36.5,20 -7.259,-20.282 -13.426,-40.949 -18.5,-62 -1.954,-5.603 -5.121,-10.269 -9.5,-14 5.344,0.166 10.677,-10e-4 16,-0.5 9.803,-4.453 15.637,-11.953 17.5,-22.5 2.542,-1.682 5.375,-2.682 8.5,-3 z"
         id="path15" /></g><g
       id="g16"
       style="clip-rule:evenodd;fill-rule:evenodd;stroke:#000000;stroke-width:0.755906;stroke-dasharray:none;stroke-opacity:1;image-rendering:optimizeQuality;shape-rendering:geometricPrecision;text-rendering:geometricPrecision"
       transform="matrix(0.26458333,0,0,0.26458333,62.781516,74.834628)"><path
         style="opacity:0.992;stroke:#000000;stroke-width:0.755906;stroke-dasharray:none;stroke-opacity:1"
         fill="#1942b0"
         d="m 179.5,320.5 c -2.763,7.985 -5.096,15.985 -7,24 -1.642,1.581 -3.642,2.247 -6,2 -0.543,-0.06 -0.876,-0.393 -1,-1 1.124,-1.414 2.124,-2.914 3,-4.5 -2.257,0.437 -4.59,0.937 -7,1.5 0.17,1.322 -0.163,2.489 -1,3.5 1.361,1.584 2.028,3.418 2,5.5 -1.788,0.285 -3.455,-0.048 -5,-1 -2.078,-3.415 -4.244,-6.749 -6.5,-10 -1.584,0.488 -2.751,1.488 -3.5,3 -0.978,-0.477 -1.811,-1.143 -2.5,-2 -0.57,-5.107 -0.07,-10.107 1.5,-15 10.973,-1.997 21.973,-3.997 33,-6 z m -16,9 c 0.978,0.311 1.645,0.978 2,2 -1.109,1.885 -1.943,3.885 -2.5,6 -0.43,-2.692 -0.263,-5.359 0.5,-8 z"
         id="path16" /></g><g
       id="g17"
       style="clip-rule:evenodd;fill-rule:evenodd;stroke:#000000;stroke-width:0.755906;stroke-dasharray:none;stroke-opacity:1;image-rendering:optimizeQuality;shape-rendering:geometricPrecision;text-rendering:geometricPrecision"
       transform="matrix(0.26458333,0,0,0.26458333,62.781516,74.834628)"><path
         style="opacity:0.71;stroke:#000000;stroke-width:0.755906;stroke-dasharray:none;stroke-opacity:1"
         fill="#3b689a"
         d="m 172.5,344.5 c -2.169,2.905 -3.503,6.238 -4,10 -1.554,-2.433 -2.22,-5.1 -2,-8 2.358,0.247 4.358,-0.419 6,-2 z"
         id="path17" /></g><g
       id="g18"
       style="clip-rule:evenodd;fill-rule:evenodd;stroke:#000000;stroke-width:0.755906;stroke-dasharray:none;stroke-opacity:1;image-rendering:optimizeQuality;shape-rendering:geometricPrecision;text-rendering:geometricPrecision"
       transform="matrix(0.26458333,0,0,0.26458333,62.781516,74.834628)"><path
         style="opacity:0.997;stroke:#000000;stroke-width:0.755906;stroke-dasharray:none;stroke-opacity:1"
         fill="#f90401"
         d="m 295.5,364.5 c 3.082,7.289 7.082,13.956 12,20 12.018,25.704 25.352,50.704 40,75 -8,0 -16,0 -24,0 -3.573,-6.141 -7.406,-12.141 -11.5,-18 0.686,5.967 1.519,11.967 2.5,18 -15.333,0 -30.667,0 -46,0 -6.911,-17.535 -13.244,-35.201 -19,-53 15.802,-0.199 27.969,-6.865 36.5,-20 0.991,-1.947 1.325,-3.947 1,-6 -4.091,-5.847 -8.424,-11.513 -13,-17 -1.241,-1.377 -1.408,-2.71 -0.5,-4 6.549,4.58 13.882,6.247 22,5 z"
         id="path18" /></g></g></svg>
